HIERARCHY
ROOT Hips
{
  OFFSET 5.84602e-005 68.8428 3.50346
  CHANNELS 6 Xposition Yposition Zposition Zrotation Xrotation Yrotation
  JOINT Spine
  {
    OFFSET 0 8.597 -4.6522
    CHANNELS 3 Zrotation Xrotation Yrotation
    JOINT Spine1
    {
      OFFSET 0 7.8454 0.4098
      CHANNELS 3 Zrotation Xrotation Yrotation
      JOINT Spine2
      {
        OFFSET 0 9.7078 -2.1609
        CHANNELS 3 Zrotation Xrotation Yrotation
        JOINT Neck
        {
          OFFSET 0 21.8761 -0.4549
          CHANNELS 3 Zrotation Xrotation Yrotation
          JOINT Head
          {
            OFFSET 0 12.3537 3.3602
            CHANNELS 3 Zrotation Xrotation Yrotation
            End Site
            {
              OFFSET 0.0001 18.9506 0.5657
            }
          }
        }
        JOINT LeftShoulder
        {
          OFFSET 2.2086 21.1115 7.2329
          CHANNELS 3 Zrotation Xrotation Yrotation
          JOINT LeftArm
          {
            OFFSET 13.1193 3.0282 -4.8998
            CHANNELS 3 Zrotation Xrotation Yrotation
            JOINT LeftForeArm
            {
              OFFSET 27.4081 -0.0973053 -0.2375
              CHANNELS 3 Zrotation Xrotation Yrotation
              JOINT LeftHand
              {
                OFFSET 22.8641 0.0662994 -0.1369
                CHANNELS 3 Zrotation Xrotation Yrotation
                JOINT LeftHandIndex1
                {
                  OFFSET 8.8614 0.775009 2.4612
                  CHANNELS 3 Zrotation Xrotation Yrotation
                  JOINT LeftHandIndex2
                  {
                    OFFSET 3.3146 -0.808304 0.5841
                    CHANNELS 3 Zrotation Xrotation Yrotation
                    JOINT LeftHandIndex3
                    {
                      OFFSET 2.2628 -0.552002 0.3989
                      CHANNELS 3 Zrotation Xrotation Yrotation
                      End Site
                      {
                        OFFSET 1.6102 -0.4807 0.2612
                      }
                    }
                  }
                }
                JOINT LeftHandMiddle1
                {
                  OFFSET 8.9937 0.895004 0.2143
                  CHANNELS 3 Zrotation Xrotation Yrotation
                  JOINT LeftHandMiddle2
                  {
                    OFFSET 4.0984 0.0113983 -0.0242
                    CHANNELS 3 Zrotation Xrotation Yrotation
                    JOINT LeftHandMiddle3
                    {
                      OFFSET 2.2716 0.00689697 -0.0138001
                      CHANNELS 3 Zrotation Xrotation Yrotation
                      End Site
                      {
                        OFFSET 2.0404 -0.1441 0.0027
                      }
                    }
                  }
                }
                JOINT LeftHandRing1
                {
                  OFFSET 8.5234 0.597198 -2.0164
                  CHANNELS 3 Zrotation Xrotation Yrotation
                  JOINT LeftHandRing2
                  {
                    OFFSET 3.7188 -0.188293 -0.2328
                    CHANNELS 3 Zrotation Xrotation Yrotation
                    JOINT LeftHandRing3
                    {
                      OFFSET 2.1191 -0.106598 -0.1332
                      CHANNELS 3 Zrotation Xrotation Yrotation
                      End Site
                      {
                        OFFSET 1.8737 -0.2304 -0.0886
                      }
                    }
                  }
                }
                JOINT LeftHandPinky1
                {
                  OFFSET 7.9094 -0.601089 -3.4825
                  CHANNELS 3 Zrotation Xrotation Yrotation
                  JOINT LeftHandPinky2
                  {
                    OFFSET 2.2874 -0.477005 -0.6314
                    CHANNELS 3 Zrotation Xrotation Yrotation
                    JOINT LeftHandPinky3
                    {
                      OFFSET 1.6774 -0.349396 -0.4633
                      CHANNELS 3 Zrotation Xrotation Yrotation
                      End Site
                      {
                        OFFSET 1.4888 -0.4091 -0.3416
                      }
                    }
                  }
                }
                JOINT LeftHandThumb1
                {
                  OFFSET 1.833 -1.3875 1.3896
                  CHANNELS 3 Zrotation Xrotation Yrotation
                  JOINT LeftHandThumb2
                  {
                    OFFSET 3.4129 -1.121 2.5732
                    CHANNELS 3 Zrotation Xrotation Yrotation
                    JOINT LeftHandThumb3
                    {
                      OFFSET 2.2474 -0.804199 1.6192
                      CHANNELS 3 Zrotation Xrotation Yrotation
                      End Site
                      {
                        OFFSET 1.6527 -0.5689 1.1317
                      }
                    }
                  }
                }
              }
            }
          }
        }
        JOINT RightShoulder
        {
          OFFSET -2.2086 21.1115 7.2329
          CHANNELS 3 Zrotation Xrotation Yrotation
          JOINT RightArm
          {
            OFFSET -13.1216 3.0287 -4.9007
            CHANNELS 3 Zrotation Xrotation Yrotation
            JOINT RightForeArm
            {
              OFFSET -27.4081 -0.0973053 -0.2375
              CHANNELS 3 Zrotation Xrotation Yrotation
              JOINT RightHand
              {
                OFFSET -22.8641 0.0664063 -0.1369
                CHANNELS 3 Zrotation Xrotation Yrotation
                JOINT RightHandIndex1
                {
                  OFFSET -8.8614 0.774994 2.4612
                  CHANNELS 3 Zrotation Xrotation Yrotation
                  JOINT RightHandIndex2
                  {
                    OFFSET -3.3146 -0.808304 0.5841
                    CHANNELS 3 Zrotation Xrotation Yrotation
                    JOINT RightHandIndex3
                    {
                      OFFSET -2.2628 -0.552002 0.3989
                      CHANNELS 3 Zrotation Xrotation Yrotation
                      End Site
                      {
                        OFFSET -1.6102 -0.4807 0.2612
                      }
                    }
                  }
                }
                JOINT RightHandMiddle1
                {
                  OFFSET -8.9937 0.894989 0.2143
                  CHANNELS 3 Zrotation Xrotation Yrotation
                  JOINT RightHandMiddle2
                  {
                    OFFSET -4.0984 0.0113983 -0.0242
                    CHANNELS 3 Zrotation Xrotation Yrotation
                    JOINT RightHandMiddle3
                    {
                      OFFSET -2.2716 0.00691223 -0.0138001
                      CHANNELS 3 Zrotation Xrotation Yrotation
                      End Site
                      {
                        OFFSET -2.0404 -0.1441 0.0027
                      }
                    }
                  }
                }
                JOINT RightHandRing1
                {
                  OFFSET -8.5234 0.597198 -2.0164
                  CHANNELS 3 Zrotation Xrotation Yrotation
                  JOINT RightHandRing2
                  {
                    OFFSET -3.7188 -0.188309 -0.2328
                    CHANNELS 3 Zrotation Xrotation Yrotation
                    JOINT RightHandRing3
                    {
                      OFFSET -2.1191 -0.106598 -0.1332
                      CHANNELS 3 Zrotation Xrotation Yrotation
                      End Site
                      {
                        OFFSET -1.8737 -0.2304 -0.0886
                      }
                    }
                  }
                }
                JOINT RightHandPinky1
                {
                  OFFSET -7.9094 -0.601105 -3.4825
                  CHANNELS 3 Zrotation Xrotation Yrotation
                  JOINT RightHandPinky2
                  {
                    OFFSET -2.2874 -0.477005 -0.6314
                    CHANNELS 3 Zrotation Xrotation Yrotation
                    JOINT RightHandPinky3
                    {
                      OFFSET -1.6774 -0.349396 -0.4633
                      CHANNELS 3 Zrotation Xrotation Yrotation
                      End Site
                      {
                        OFFSET -1.4888 -0.4091 -0.3416
                      }
                    }
                  }
                }
                JOINT RightHandThumb1
                {
                  OFFSET -1.833 -1.38751 1.3896
                  CHANNELS 3 Zrotation Xrotation Yrotation
                  JOINT RightHandThumb2
                  {
                    OFFSET -3.41299 -1.12099 2.5732
                    CHANNELS 3 Zrotation Xrotation Yrotation
                    JOINT RightHandThumb3
                    {
                      OFFSET -2.24741 -0.804108 1.6192
                      CHANNELS 3 Zrotation Xrotation Yrotation
                      End Site
                      {
                        OFFSET -1.6527 -0.5689 1.1317
                      }
                    }
                  }
                }
              }
            }
          }
        }
      }
    }
  }
  JOINT RightUpLeg
  {
    OFFSET -9.1966 3.8861 -0.7581
    CHANNELS 3 Zrotation Xrotation Yrotation
    JOINT RightLeg
    {
      OFFSET -0.7359 -41.0265 0
      CHANNELS 3 Zrotation Xrotation Yrotation
      JOINT RightFoot
      {
        OFFSET 0 -40.2855 0
        CHANNELS 3 Zrotation Xrotation Yrotation
        JOINT RightToeBase
        {
          OFFSET 0 -5.6122 11.7359
          CHANNELS 3 Zrotation Xrotation Yrotation
          End Site
          {
            OFFSET 0 0 7.8731
          }
        }
      }
    }
  }
  JOINT LeftUpLeg
  {
    OFFSET 9.1965 3.8864 -0.7581
    CHANNELS 3 Zrotation Xrotation Yrotation
    JOINT LeftLeg
    {
      OFFSET 0.7359 -41.0268 0
      CHANNELS 3 Zrotation Xrotation Yrotation
      JOINT LeftFoot
      {
        OFFSET 0 -40.2855 0
        CHANNELS 3 Zrotation Xrotation Yrotation
        JOINT LeftToeBase
        {
          OFFSET 0 -5.6122 11.7359
          CHANNELS 3 Zrotation Xrotation Yrotation
          End Site
          {
            OFFSET 0 0 7.8731
          }
        }
      }
    }
  }
}
MOTION
Frames:	6
Frame Time:	0.0333333
5.84602e-005 68.8428 3.50346 0 0 -0 0 0 -0 0 0 -0 0 0 -0 0 0 -0 0 0 -0 0 0 -0 0 0 -0 0 0 -0 0 0 -0 0 0 -0 0 0 -0 0 0 -0 0 0 -0 -0.0146107 -8.87603e-005 -2.63497e-007 2.99804e-018 -2.42657e-020 -1.42182e-022 0 0 -0 -0.0187562 -0.001176 5.858e-005 5.06224e-018 3.88251e-019 1.21329e-020 0 0 -0 -0.012269 -0.00324817 0.000675346 -1.74678e-018 3.88251e-019 -0 0 0 -0 0 0 -0 0 0 -0 0 0 -0 0 0 -0 0 0 -0 0 0 -0 0 0 -0 0 0 -0 0 0 -0 0 0 -0 0.0149955 -9.10982e-005 2.64101e-007 -9.69331e-018 1.21329e-020 -4.7394e-023 0 0 -0 0.0189956 -0.00119102 -5.96516e-005 -5.41541e-019 0 2.42657e-020 0 0 -0 0.0122698 -0.00324857 -0.000673756 -2.00796e-019 0 -1.94126e-019 0 0 -0 0 0 -0 0 0 -0 3.39842 1.33031 -0.0637918 -5.65207e-008 0.834868 -0.000436188 -3.39935 -2.16518 -0.0642563 -8.89002e-024 -1.18485e-023 -1.48106e-024 -3.39844 1.35642 0.0640283 -3.18788e-007 0.782166 -0.000588827 3.39931 -2.13858 0.0634662 1.1399e-023 0 -0 
21.3329 68.3002 10.4914 -1.34824e-016 1.36889e-015 101.25 -0.885758 0.289472 -0.442209 -1.76929 0.585737 -0.879904 -1.76929 0.585737 -0.879899 -1.87919 2.05689 0.10021 -16.6329 -4.20306 -2.46347 -27.6907 -2.50177 -8.33486 -8.62638 -0.344131 -11.3286 -0.74431 0.109576 -14.4859 -5.58651 1.04098 10.1311 -6.36111e-015 -3.18055e-015 -7.15625e-015 4.41391e-032 7.95139e-016 -3.18055e-015 0 0 -4.77083e-015 -6.36111e-015 -3.18055e-015 -7.15625e-015 -0.0145993 -8.76884e-005 3.29361e-006 -6.36111e-015 3.18055e-015 7.95139e-016 -6.36111e-015 -3.18055e-015 -7.15625e-015 -0.0187388 -0.00117523 6.5462e-005 -1.76556e-031 3.18055e-015 3.18055e-015 -6.36111e-015 -3.18055e-015 -7.15625e-015 -0.0122264 -0.00323648 0.00067493 4.41391e-032 3.18055e-015 -7.95139e-016 -6.36111e-015 -3.18055e-015 -7.15625e-015 4.41391e-032 7.95139e-016 -3.18055e-015 0 0 -4.77083e-015 28.0273 -2.66065 9.35342 10.6413 -0.129777 6.88567 21.405 0.762033 74.197 11.1976 0.177101 -0.487436 9.54166e-015 0 4.77083e-015 -3.18055e-015 3.18055e-015 1.59028e-015 3.18055e-015 3.18055e-015 -1.59028e-015 9.54166e-015 0 4.77083e-015 0.0150322 -8.52455e-005 2.79326e-006 5.29669e-031 9.54166e-015 -3.18055e-015 9.54166e-015 0 4.77083e-015 0.0189208 -0.0011831 -6.24357e-005 5.29669e-031 -9.54166e-015 3.18055e-015 9.54166e-015 0 4.77083e-015 0.0124061 -0.00327834 -0.000686304 -1.06421e-006 1.24138e-007 2.10649e-007 9.54166e-015 0 4.77083e-015 -3.18055e-015 3.18055e-015 1.59028e-015 3.18055e-015 3.18055e-015 -1.59028e-015 2.90189 -0.518052 -0.259507 1.29712 6.65697 -0.307748 -5.27657 -4.92683 1.23421 1.04016e-008 8.35054e-009 1.90469e-010 -2.90382 -0.517243 0.257467 -1.29906 6.65577 0.30586 5.27466 -4.92622 -1.23632 1.26174e-007 7.17985e-008 -9.62277e-006 
31.7874 67.8475 16.3401 -7.01671e-015 7.01671e-015 180 -1.56711 0.503754 -0.794304 -3.12728 1.029 -1.57463 -3.12727 1.02899 -1.57463 -3.34594 3.65681 0.178605 -29.7781 -7.45812 -4.39864 -49.7273 -4.34549 -14.847 -15.428 -0.585804 -20.1404 -1.28676 0.185787 -25.8432 -10.2074 1.78094 17.983 -3.18055e-015 -3.18055e-015 -0 -3.53113e-031 -3.18055e-015 -6.36111e-015 -0 -4.77083e-015 -0 -3.18055e-015 -3.18055e-015 -0 -0.0146154 -9.07328e-005 -1.67331e-006 -1.59028e-015 -7.95139e-015 1.90833e-014 -3.18055e-015 -3.18055e-015 -0 -0.018757 -0.00117608 5.81232e-005 1.59028e-015 -3.18055e-015 -3.18055e-015 -3.18055e-015 -3.18055e-015 -0 -0.0122803 -0.00324924 0.00067184 -1.59028e-015 -3.18055e-015 -9.54166e-015 -3.18055e-015 -3.18055e-015 -0 -3.53113e-031 -3.18055e-015 -6.36111e-015 -0 -4.77083e-015 -0 50.4208 -4.59322 16.6652 18.9393 -0.22711 12.2413 39.0891 -3.31058 131.673 19.9089 0.314831 -0.866568 -2.14715e-007 5.02793e-007 -6.54557e-007 1.26977e-006 7.15828e-007 6.29899e-007 2.64521e-006 1.25329e-006 -6.39067e-007 -2.14715e-007 5.02793e-007 -6.54557e-007 0.0149934 -8.65672e-005 1.12184e-006 -3.07264e-006 -2.478e-007 -6.70013e-007 -2.14715e-007 5.02793e-007 -6.54557e-007 0.0190279 -0.00119537 -5.93907e-005 -2.14729e-007 5.02684e-007 -6.54638e-007 -2.14715e-007 5.02793e-007 -6.54557e-007 0.0122734 -0.00325157 -0.000673952 -2.14741e-007 5.02723e-007 -6.54605e-007 -2.14715e-007 5.02793e-007 -6.54557e-007 1.26977e-006 7.15828e-007 6.29899e-007 2.64521e-006 1.25329e-006 -6.39067e-007 2.50971 -2.03636 -0.412774 2.33799 11.3561 -0.557316 -6.65461 -7.15301 2.2469 4.22169e-007 -2.22316e-007 5.033e-009 -2.51324 -2.03495 0.409131 -2.3412 11.354 0.553877 6.65109 -7.15194 -2.25067 8.69683e-017 -7.95139e-016 1.19271e-015 
33.0847 67.7814 17.6484 -8.3856e-015 6.88189e-015 -168.75 -1.66391 0.533566 -0.845165 -3.31999 1.09139 -1.6746 -3.31999 1.09139 -1.6746 -3.55576 3.88525 0.1898 -31.5078 -7.92513 -4.65348 -52.9101 -4.59671 -15.7806 -16.4059 -0.617259 -21.3993 -1.36328 0.212169 -27.8139 -10.9804 1.85294 18.9744 7.95139e-016 -1.19271e-015 -6.36111e-015 -1.59028e-015 7.95139e-016 -6.36111e-015 -1.19271e-015 1.19271e-015 -6.36111e-015 7.95139e-016 -1.19271e-015 -6.36111e-015 -0.0146066 -9.17916e-005 6.81408e-007 -1.85696e-007 -8.80597e-007 -9.59426e-007 7.95139e-016 -1.19271e-015 -6.36111e-015 -0.0187478 -0.001172 5.52177e-005 -1.19271e-015 7.95139e-016 -9.54166e-015 7.95139e-016 -1.19271e-015 -6.36111e-015 -0.0122644 -0.00324522 0.000673968 -1.59028e-015 4.37326e-015 6.36111e-015 7.95139e-016 -1.19271e-015 -6.36111e-015 -1.59028e-015 7.95139e-016 -6.36111e-015 -1.19271e-015 1.19271e-015 -6.36111e-015 53.6608 -4.85299 17.7139 20.1262 -0.240588 13.0063 41.908 -4.02798 139.528 21.1535 0.334499 -0.920727 7.95139e-016 -3.18055e-015 3.18055e-015 2.38542e-015 0 1.59028e-015 2.38542e-015 -3.18055e-015 -1.59028e-015 7.95139e-016 -3.18055e-015 3.18055e-015 0.0150255 -8.69209e-005 4.84913e-006 1.59028e-015 0 -4.77083e-015 7.95139e-016 -3.18055e-015 3.18055e-015 0.0189422 -0.00118595 -5.75038e-005 0 0 -1.59028e-015 7.95139e-016 -3.18055e-015 3.18055e-015 0.0123134 -0.0032588 -0.000674566 3.18055e-015 6.36111e-015 3.18055e-015 7.95139e-016 -3.18055e-015 3.18055e-015 2.38542e-015 0 1.59028e-015 2.38542e-015 -3.18055e-015 -1.59028e-015 2.45321 -2.25411 -0.434848 2.48919 12.0296 -0.593859 -6.84563 -7.47145 2.39216 -2.98177e-016 3.97569e-016 -3.18055e-015 -2.45697 -2.25288 0.430976 -2.49257 12.028 0.590228 6.84188 -7.47059 -2.39616 1.06382e-007 -8.03859e-009 2.36446e-009 
31.7874 67.8475 16.3401 -7.01671e-015 7.01671e-015 180 -1.56711 0.503754 -0.794304 -3.12728 1.029 -1.57463 -3.12727 1.02899 -1.57463 -3.34594 3.65681 0.178605 -29.3904 -7.46686 -4.34108 -49.7273 -4.34549 -14.847 -15.428 -0.585808 -20.1404 -1.29159 0.226577 -26.6562 -10.4335 1.71878 17.6774 -3.18055e-015 -6.36111e-015 3.18055e-015 1.59028e-015 0 -3.18055e-015 -3.18055e-015 -4.77083e-015 3.18055e-015 -3.18055e-015 -6.36111e-015 3.18055e-015 -0.0146283 -8.77711e-005 -6.3059e-006 -4.77083e-015 1.59028e-015 1.27222e-014 -3.18055e-015 -6.36111e-015 3.18055e-015 -0.0187587 -0.00117862 5.86846e-005 0 0 -3.18055e-015 -3.18055e-015 -6.36111e-015 3.18055e-015 -0.0122828 -0.00325298 0.000681643 -3.18055e-015 4.77083e-015 -6.36111e-015 -3.18055e-015 -6.36111e-015 3.18055e-015 1.59028e-015 0 -3.18055e-015 -3.18055e-015 -4.77083e-015 3.18055e-015 50.4208 -4.59322 16.6652 18.9393 -0.227115 12.2413 38.715 -3.26346 130.831 19.9089 0.314825 -0.866573 9.54166e-015 -3.18055e-015 6.36111e-015 3.18055e-015 -3.18055e-015 -0 -3.18055e-015 -3.18055e-015 -0 9.54166e-015 -3.18055e-015 6.36111e-015 0.0150513 -9.00092e-005 1.46321e-007 -1.76556e-031 -3.18055e-015 -3.18055e-015 9.54166e-015 -3.18055e-015 6.36111e-015 0.0190137 -0.00118876 -6.27279e-005 -3.18055e-015 -3.18055e-015 3.18055e-015 9.54166e-015 -3.18055e-015 6.36111e-015 0.0122977 -0.0032553 -0.000675565 1.59028e-015 0 -6.36111e-015 9.54166e-015 -3.18055e-015 6.36111e-015 3.18055e-015 -3.18055e-015 -0 -3.18055e-015 -3.18055e-015 -0 2.50971 -2.03636 -0.412774 2.33799 11.3561 -0.557316 -6.65461 -7.15301 2.2469 4.22169e-007 -2.22316e-007 5.033e-009 -2.51324 -2.03495 0.409131 -2.3412 11.354 0.553877 6.65109 -7.15194 -2.25067 8.69683e-017 -7.95139e-016 1.19271e-015 
31.7874 67.8475 16.3401 -7.01671e-015 7.01671e-015 180 -1.56711 0.503754 -0.794304 -3.12728 1.029 -1.57463 -3.12727 1.02899 -1.57463 -3.34594 3.65681 0.178605 -29.1964 -7.47109 -4.31225 -49.7273 -4.34549 -14.847 -15.428 -0.5858 -20.1404 -1.2938 0.247052 -27.0639 -10.5467 1.68813 17.5244 1.59028e-015 -1.59028e-015 6.36111e-015 1.59028e-015 -3.18055e-015 3.18055e-015 3.18055e-015 3.18055e-015 6.36111e-015 1.59028e-015 -1.59028e-015 6.36111e-015 -0.0146147 -9.1015e-005 1.58086e-006 -3.18055e-015 4.77083e-015 3.18055e-015 1.59028e-015 -1.59028e-015 6.36111e-015 -0.0187398 -0.00117444 6.36633e-005 8.82781e-032 -1.59028e-015 3.18055e-015 1.59028e-015 -1.59028e-015 6.36111e-015 -0.0122539 -0.00324173 0.000675364 1.59028e-015 -1.59028e-015 -0 1.59028e-015 -1.59028e-015 6.36111e-015 1.59028e-015 -3.18055e-015 3.18055e-015 3.18055e-015 3.18055e-015 6.36111e-015 50.4208 -4.59322 16.6652 18.9393 -0.227114 12.2413 38.5276 -3.23775 130.408 19.9089 0.314828 -0.866565 1.18979e-006 9.75958e-007 1.84721e-007 7.95139e-015 0 3.18055e-015 -2.20831e-007 4.9791e-007 -6.55843e-007 1.18979e-006 9.75958e-007 1.84721e-007 0.0150138 -9.77758e-005 -9.91774e-007 -2.20838e-007 4.97824e-007 -6.55908e-007 1.18979e-006 9.75958e-007 1.84721e-007 0.0189928 -0.00118921 -5.74189e-005 -2.20846e-007 4.97802e-007 -6.55923e-007 1.18979e-006 9.75958e-007 1.84721e-007 0.0122727 -0.00324683 -0.000677179 9.70014e-007 1.47354e-006 -4.71367e-007 1.18979e-006 9.75958e-007 1.84721e-007 7.95139e-015 0 3.18055e-015 -2.20831e-007 4.9791e-007 -6.55843e-007 2.50971 -2.03636 -0.412774 2.33799 11.3561 -0.557316 -6.65461 -7.15301 2.2469 4.22169e-007 -2.22316e-007 5.033e-009 -2.51324 -2.03495 0.409131 -2.3412 11.354 0.553877 6.65109 -7.15194 -2.25067 8.69683e-017 -7.95139e-016 1.19271e-015 
